<?xml version="1.0" standalone="no"?>
<!DOCTYPE svg PUBLIC "-//W3C//DTD SVG 20010904//EN"
 "http://www.w3.org/TR/2001/REC-SVG-20010904/DTD/svg10.dtd">
<svg version="1.0" xmlns="http://www.w3.org/2000/svg"
 width="1280.000000pt" height="720.000000pt" viewBox="0 0 1280.000000 720.000000"
 preserveAspectRatio="xMidYMid meet">

<g transform="translate(0.000000,720.000000) scale(0.100000,-0.100000)"
fill="#000000" stroke="none">
<path d="M6192 6629 c-650 -59 -1244 -378 -1656 -889 -472 -586 -636 -1364
-445 -2107 39 -152 87 -281 169 -448 121 -248 243 -418 455 -631 375 -378 836
-609 1370 -686 137 -20 522 -16 665 6 677 105 1260 477 1643 1048 73 108 188
330 235 453 241 622 211 1319 -81 1918 -394 807 -1198 1323 -2087 1341 -96 2
-217 0 -268 -5z m533 -93 c923 -139 1668 -800 1905 -1691 17 -64 30 -121 28
-127 -2 -6 -21 12 -41 39 -71 97 -159 146 -262 147 -89 0 -145 -24 -220 -95
-68 -64 -117 -142 -156 -250 -43 -117 -58 -210 -69 -414 -14 -251 -31 -356
-86 -521 -61 -184 -159 -323 -267 -381 -22 -12 -55 -18 -103 -18 -65 0 -75 3
-127 37 -128 85 -233 283 -287 541 -22 101 -34 247 -50 579 -35 741 -226 1319
-480 1448 -206 105 -411 -91 -550 -525 -93 -293 -160 -774 -160 -1152 0 -269
-80 -581 -191 -747 -113 -169 -234 -222 -364 -161 -123 58 -239 251 -299 495
-36 148 -45 213 -56 416 -15 292 -53 430 -162 585 -104 150 -262 203 -400 136
-52 -25 -142 -109 -180 -167 -24 -37 12 110 68 280 189 570 619 1060 1164
1328 234 115 498 195 730 221 52 6 109 13 125 15 74 8 390 -3 490 -18z m-246
-782 c197 -99 375 -613 426 -1236 l7 -78 -512 0 -511 0 5 43 c3 23 8 74 11
112 18 212 74 505 131 686 93 295 241 498 365 499 14 0 49 -12 78 -26z m-1923
-959 c145 -85 254 -347 254 -611 0 -179 31 -386 81 -549 114 -369 339 -559
562 -475 72 27 167 113 226 204 115 176 187 447 197 741 3 83 7 174 10 203 l5
52 512 -2 512 -3 6 -175 c7 -196 13 -253 40 -390 62 -307 195 -533 364 -616
69 -34 79 -36 144 -32 97 7 163 41 243 126 105 113 172 248 222 449 34 136 45
220 56 423 15 294 58 440 168 579 176 219 422 88 519 -277 24 -86 26 -115 26
-267 0 -553 -235 -1116 -642 -1538 -620 -642 -1547 -870 -2392 -588 -343 115
-634 296 -894 556 -410 408 -640 919 -680 1505 -16 227 55 487 165 612 94 107
195 132 296 73z"/>
<path d="M4850 1583 c-19 -10 -52 -35 -72 -57 -65 -66 -68 -90 -68 -513 l0
-373 40 0 40 0 0 200 0 200 215 0 215 0 0 -200 0 -200 40 0 40 0 0 378 c0 222
-4 392 -10 413 -15 53 -50 100 -100 134 -44 29 -49 30 -175 33 -108 2 -136 -1
-165 -15z m293 -83 c64 -43 77 -85 77 -243 l0 -137 -215 0 -215 0 0 134 c0
153 10 189 65 233 47 38 66 42 166 40 73 -2 91 -6 122 -27z"/>
<path d="M5561 1583 c-46 -23 -93 -71 -117 -119 -18 -36 -19 -62 -19 -344 0
-293 1 -307 22 -345 25 -47 64 -86 113 -111 52 -27 225 -32 287 -9 62 24 112
70 139 130 23 49 24 58 24 331 0 312 -5 343 -63 407 -58 65 -96 77 -232 77
-92 0 -128 -4 -154 -17z m293 -84 c72 -48 76 -70 76 -379 l0 -273 -25 -44
c-37 -62 -83 -83 -187 -83 -108 0 -161 24 -195 89 -22 43 -23 52 -23 305 0
148 5 277 10 298 11 40 76 103 114 112 11 2 60 3 108 2 73 -2 92 -6 122 -27z"/>
<path d="M6130 1228 c0 -226 4 -388 10 -410 17 -59 69 -120 129 -151 49 -24
65 -27 155 -27 85 0 109 4 151 24 60 28 97 66 124 126 20 43 21 64 21 428 l0
382 -40 0 -40 0 0 -377 c0 -374 -1 -378 -23 -418 -12 -22 -40 -50 -62 -63 -36
-20 -50 -23 -140 -20 -87 3 -104 7 -133 28 -17 13 -41 42 -52 65 -19 39 -20
62 -20 413 l0 372 -40 0 -40 0 0 -372z"/>
<path d="M6972 1579 c-23 -12 -56 -37 -72 -57 -58 -70 -60 -89 -60 -504 l0
-378 40 0 40 0 0 377 c0 361 1 379 21 419 22 46 63 77 117 89 l32 7 0 -446 0
-446 40 0 40 0 0 445 c0 503 -7 467 80 423 30 -15 53 -37 67 -63 22 -39 23
-45 23 -422 l0 -383 40 0 40 0 0 388 c0 386 0 387 -24 437 -50 106 -107 135
-268 135 -95 0 -120 -3 -156 -21z"/>
<path d="M7560 1565 l0 -35 120 0 120 0 0 -405 0 -405 -120 0 -120 0 0 -40 0
-40 280 0 280 0 0 40 0 40 -120 0 -120 0 0 405 0 405 120 0 120 0 0 35 0 35
-280 0 -280 0 0 -35z"/>
</g>
</svg>
