<?xml version="1.0" standalone="no"?>
<!DOCTYPE svg PUBLIC "-//W3C//DTD SVG 20010904//EN"
 "http://www.w3.org/TR/2001/REC-SVG-20010904/DTD/svg10.dtd">
<svg version="1.0" xmlns="http://www.w3.org/2000/svg"
 width="191.000000pt" height="74.000000pt" viewBox="0 0 191.000000 74.000000"
 preserveAspectRatio="xMidYMid meet">

<g transform="translate(0.000000,74.000000) scale(0.100000,-0.100000)"
fill="#000000" stroke="none">
<path d="M253 716 c-92 -30 -176 -107 -221 -204 -23 -49 -27 -70 -27 -147 0
-82 3 -97 32 -156 39 -79 102 -140 181 -177 49 -23 70 -27 147 -27 78 0 98 4
151 28 73 34 142 101 181 177 25 49 28 65 28 155 0 90 -3 106 -29 159 -37 76
-96 135 -172 172 -49 24 -73 29 -144 31 -51 2 -102 -3 -127 -11z m258 -28 c93
-42 166 -124 194 -216 6 -22 5 -23 -14 -12 -51 27 -85 -16 -94 -117 -6 -76
-33 -128 -66 -128 -42 0 -61 41 -72 156 -16 171 -47 245 -101 237 -39 -5 -66
-76 -78 -203 -15 -150 -40 -206 -89 -190 -27 8 -42 43 -56 133 -11 66 -19 91
-36 105 -24 19 -45 22 -54 7 -3 -5 -10 -10 -16 -10 -14 0 21 80 58 132 37 51
110 103 176 124 65 21 181 13 248 -18z m-112 -113 c19 -26 41 -104 41 -150 0
-24 -2 -25 -75 -25 -71 0 -75 1 -75 23 0 36 25 123 44 151 21 33 39 33 65 1z
m-301 -139 c12 -16 21 -48 25 -90 9 -97 42 -151 89 -144 32 4 65 59 73 123 l6
55 80 0 79 0 0 -47 c0 -63 35 -127 72 -131 48 -6 88 62 88 151 0 43 22 92 44
100 27 11 58 -26 63 -75 12 -106 -51 -234 -148 -300 -140 -96 -317 -84 -441
31 -104 95 -149 270 -87 332 25 25 34 24 57 -5z"/>
<path d="M952 487 c-20 -21 -22 -34 -22 -140 0 -71 4 -117 10 -117 6 0 10 27
10 60 l0 60 60 0 60 0 0 -60 c0 -47 3 -60 15 -60 12 0 15 19 15 115 0 110 -1
117 -25 140 -33 34 -93 34 -123 2z m99 -7 c15 -8 19 -22 19 -60 l0 -50 -60 0
-60 0 0 44 c0 35 5 48 22 60 26 19 51 20 79 6z"/>
<path d="M1155 485 c-23 -22 -25 -32 -25 -115 0 -83 2 -93 25 -115 30 -31 82
-33 119 -4 25 20 26 25 26 118 0 89 -2 99 -23 119 -33 31 -90 30 -122 -3z
m103 -11 c20 -14 22 -24 22 -104 0 -80 -2 -90 -22 -104 -28 -20 -58 -20 -84
-2 -16 12 -19 27 -19 106 0 79 3 94 19 106 26 18 56 18 84 -2z"/>
<path d="M1340 390 c0 -107 2 -122 20 -140 26 -26 89 -27 121 -1 22 18 24 27
27 141 3 99 1 121 -10 118 -9 -3 -14 -36 -18 -122 -5 -123 -10 -136 -55 -136
-11 0 -31 7 -43 16 -21 14 -22 23 -22 130 0 69 -4 114 -10 114 -6 0 -10 -47
-10 -120z"/>
<path d="M1565 485 c-24 -23 -25 -30 -25 -140 0 -63 4 -115 9 -115 5 0 11 52
13 116 3 102 5 117 23 130 20 15 20 13 23 -116 2 -106 5 -130 17 -130 12 0 15
22 15 130 0 128 0 130 20 120 18 -10 20 -21 20 -130 0 -100 3 -120 15 -120 12
0 15 19 15 115 0 110 -1 117 -25 140 -16 17 -35 25 -60 25 -25 0 -44 -8 -60
-25z"/>
<path d="M1750 501 c0 -6 15 -11 33 -13 l32 -3 0 -115 0 -115 -32 -3 c-65 -6
-31 -22 47 -22 47 0 80 4 80 10 0 6 -16 10 -35 10 l-35 0 0 120 0 120 35 0
c19 0 35 5 35 10 0 6 -33 10 -80 10 -44 0 -80 -4 -80 -9z"/>
</g>
</svg>
