<?xml version="1.0" standalone="no"?>
<!DOCTYPE svg PUBLIC "-//W3C//DTD SVG 20010904//EN"
 "http://www.w3.org/TR/2001/REC-SVG-20010904/DTD/svg10.dtd">
<svg version="1.0" xmlns="http://www.w3.org/2000/svg"
 width="508.000000pt" height="149.000000pt" viewBox="0 0 508.000000 149.000000"
 preserveAspectRatio="xMidYMid meet">

<g transform="translate(0.000000,149.000000) scale(0.100000,-0.100000)"
fill="#000000" stroke="none">
<path d="M504 1390 c-199 -52 -354 -182 -441 -368 -176 -377 36 -818 443 -922
248 -64 528 33 681 235 189 249 189 571 0 821 -152 201 -438 299 -683 234z
m291 -15 c187 -40 361 -175 443 -345 22 -47 44 -100 47 -118 l7 -33 -28 26
c-33 31 -72 32 -108 4 -43 -34 -58 -76 -72 -202 -15 -127 -39 -194 -82 -227
-34 -27 -64 -25 -94 8 -52 55 -78 145 -78 271 0 88 -25 237 -51 306 -46 123
-117 159 -177 91 -59 -67 -88 -180 -102 -397 -10 -149 -30 -222 -77 -271 -31
-33 -61 -36 -95 -8 -43 33 -67 100 -82 227 -14 126 -29 168 -72 202 -36 28
-75 27 -108 -4 l-28 -26 7 33 c3 18 25 71 47 118 58 120 170 233 289 290 141
67 273 85 414 55z m-82 -235 c42 -50 70 -141 91 -302 l5 -38 -144 0 -144 0 5
38 c22 167 47 251 91 302 32 39 64 39 96 0z m-555 -246 c37 -25 53 -71 63
-173 12 -127 34 -195 79 -243 40 -42 72 -48 118 -24 53 28 102 156 102 268 l0
58 144 0 143 0 6 -82 c13 -211 121 -320 216 -220 45 47 68 119 80 246 10 106
29 151 74 176 24 13 28 13 54 -6 47 -34 68 -89 67 -174 -3 -163 -64 -300 -189
-427 -66 -66 -98 -90 -166 -123 -193 -92 -375 -92 -568 0 -68 33 -100 57 -166
123 -125 127 -186 264 -189 427 -2 133 65 221 132 174z"/>
<path d="M1850 1241 c-70 -23 -122 -66 -156 -131 -17 -32 -19 -67 -22 -432
l-3 -398 41 0 40 0 0 200 0 200 215 0 215 0 0 -200 0 -200 40 0 40 0 0 383
c-1 411 -2 424 -54 492 -15 19 -48 47 -74 62 -42 25 -58 28 -152 30 -58 1
-116 -1 -130 -6z m240 -94 c30 -16 51 -37 67 -67 21 -39 23 -56 23 -182 l0
-138 -215 0 -215 0 0 138 c0 123 2 143 23 182 32 65 86 90 193 90 65 0 89 -4
124 -23z"/>
<path d="M2560 1241 c-70 -23 -122 -66 -156 -131 -17 -32 -19 -62 -19 -345 0
-299 1 -311 22 -350 25 -47 64 -85 113 -111 29 -16 57 -19 155 -19 113 0 123
2 167 28 26 15 59 42 72 60 52 68 56 98 56 392 0 294 -4 324 -56 392 -13 18
-46 45 -72 60 -42 25 -58 28 -152 30 -58 1 -116 -1 -130 -6z m240 -94 c30 -16
51 -37 67 -67 22 -42 23 -51 23 -315 0 -264 -1 -273 -23 -315 -34 -65 -88 -90
-191 -90 -103 0 -160 25 -193 85 -22 39 -23 49 -23 320 0 271 1 281 23 320 33
60 90 85 193 85 65 0 89 -4 124 -23z"/>
<path d="M3960 1237 c-49 -16 -133 -103 -148 -153 -8 -29 -12 -152 -12 -423
l0 -381 40 0 39 0 3 394 c3 381 4 396 24 422 30 41 65 64 107 71 l37 6 0 -447
0 -446 40 0 40 0 0 445 0 445 23 0 c42 0 101 -43 125 -90 22 -44 22 -50 22
-422 l0 -378 40 0 41 0 -3 398 c-3 385 -4 398 -25 437 -25 47 -64 86 -113 111
-43 22 -225 30 -280 11z"/>
<path d="M4520 1210 l0 -40 120 0 120 0 0 -405 0 -405 -120 0 -120 0 0 -40 0
-40 280 0 280 0 0 40 0 40 -120 0 -120 0 0 405 0 405 120 0 120 0 0 40 0 40
-280 0 -280 0 0 -40z"/>
<path d="M3090 858 c0 -364 1 -385 21 -428 25 -55 62 -95 114 -123 35 -19 56
-22 160 -22 113 0 123 2 167 28 26 15 59 43 74 62 51 67 54 97 54 497 l0 368
-40 0 -40 0 0 -373 c0 -371 0 -374 -23 -417 -34 -65 -88 -90 -191 -90 -103 0
-160 25 -193 85 -22 39 -23 45 -23 418 l0 377 -40 0 -40 0 0 -382z"/>
</g>
</svg>
